<svg id="Layer_1" enable-background="new 0 0 512.036 512.036" height="512" viewBox="0 0 512.036 512.036" width="512" xmlns="http://www.w3.org/2000/svg"><g><path d="m496.034 268.676c-8.778 0-15.928-7.081-15.997-15.874-.004-.576-.015-1.145-.031-1.72-.251-8.833 6.705-16.197 15.538-16.449 8.837-.246 16.198 6.706 16.449 15.538.022.796.037 1.584.043 2.38.069 8.872-7.101 16.125-16.002 16.125z"/></g><g><path d="m78.364 440.305c-101.849-98.205-104.812-260.114-6.59-361.979 56.622-58.722 135.135-85.031 211.656-76.847 111.129 11.873 196.353 92.823 221.104 192.792 2.124 8.578-3.108 17.253-11.686 19.376-8.581 2.123-17.253-3.108-19.376-11.686-21.695-87.63-96.437-158.3-193.442-168.665-134.603-14.39-250.383 92.3-247.934 226.801 2.844 156.265 159.843 259.203 302.698 205.688 70.514-26.393 124.914-87.942 140.648-164.366 1.782-8.655 10.242-14.226 18.898-12.445 8.655 1.782 14.227 10.243 12.445 18.898-40.735 197.85-284.04 271.649-428.421 132.433z"/></g><path d="m303.51 266.16c2.657-3.232 3.967-7.447 3.546-11.716-.745-7.62-2.509-7.639-36.607-41.737-6.248-6.249-16.379-6.249-22.627 0-6.249 6.248-6.249 16.379 0 22.627l4.686 4.687h-108.45c-8.836 0-16 7.164-16 16s7.164 16 16 16h108.451l-4.686 4.687c-10.109 10.109-2.811 27.313 11.313 27.313 4.095 0 8.189-1.562 11.313-4.687 34.866-34.866 32.325-32.275 33.061-33.174z"/><g><path d="m352.058 392.02h-176c-26.467 0-48-21.533-48-48v-32c0-8.836 7.164-16 16-16s16 7.164 16 16v32c0 8.822 7.178 16 16 16h176c8.822 0 16-7.178 16-16v-176c0-8.822-7.178-16-16-16h-176c-8.822 0-16 7.178-16 16v32c0 8.836-7.164 16-16 16s-16-7.164-16-16v-32c0-26.467 21.533-48 48-48h176c26.467 0 48 21.533 48 48v176c0 26.467-21.533 48-48 48z"/></g></svg>