<?xml version="1.0" encoding="iso-8859-1"?>
<!-- Generator: Adobe Illustrator 19.0.0, SVG Export Plug-In . SVG Version: 6.00 Build 0)  -->
<svg version="1.1" id="Capa_1" xmlns="http://www.w3.org/2000/svg" xmlns:xlink="http://www.w3.org/1999/xlink" x="0px" y="0px"
	 viewBox="0 0 512 512" style="enable-background:new 0 0 512 512;" xml:space="preserve">
<g>
	<g>
		<path d="M451,0H61C36.187,0,16,20.187,16,45c0,12.278,0,219.848,0,227c0,132.642,107.341,240,240,240
			c132.641,0,240-107.34,240-240c0-7.114,0-214.776,0-227C496,20.187,475.813,0,451,0z M466,272c0,115.794-94.206,210-210,210
			S46,387.794,46,272v-82.844l30,12V221c0,8.284,6.716,15,15,15s15-6.716,15-15v-7.844l122.146,48.858
			c8.981,3.592,18.418,5.388,27.854,5.388c9.436,0,18.873-1.796,27.854-5.388L406,213.156V221c0,8.284,6.716,15,15,15
			s15-6.716,15-15v-19.844l30-12V272z M466,156.844c-22.123,8.849-174.235,69.694-193.288,77.315
			c-10.777,4.311-22.648,4.311-33.424,0C220.432,226.617,55.219,160.532,46,156.844V45c0-8.271,6.729-15,15-15h390
			c8.271,0,15,6.729,15,15V156.844z"/>
	</g>
</g>
<g>
	<g>
		<path d="M118.063,326.15c-6.51-15.993-10.431-32.805-11.653-49.969c-0.589-8.263-7.755-14.483-16.027-13.897
			c-8.264,0.589-14.485,7.764-13.896,16.028c1.447,20.323,6.087,40.223,13.792,59.149c3.129,7.687,11.888,11.355,19.548,8.238
			C117.499,342.575,121.188,333.823,118.063,326.15z"/>
	</g>
</g>
<g>
	<g>
		<path d="M299.418,431.915c-1.434-8.159-9.202-13.612-17.37-12.177c-17.355,3.05-35.055,2.893-50.881,0.225
			c-8.165-1.379-15.907,4.129-17.285,12.297c-1.379,8.168,4.127,15.907,12.296,17.285c19.383,3.269,40.461,3.361,61.063-0.26
			C295.4,447.851,300.852,440.074,299.418,431.915z"/>
	</g>
</g>
<g>
	<g>
		<path d="M183.631,402.725c-14.604-8.494-27.725-19.512-38.995-32.747c-5.371-6.308-14.84-7.066-21.145-1.695
			c-6.307,5.372-7.066,14.839-1.695,21.146c13.476,15.825,29.206,29.024,46.751,39.229c7.161,4.165,16.344,1.737,20.508-5.425
			C193.221,416.072,190.792,406.89,183.631,402.725z"/>
	</g>
</g>
<g>
	<g>
		<path d="M421.397,262.416c-8.304-0.263-15.209,6.228-15.478,14.507c-0.556,17.161-4.006,33.918-10.256,49.805
			c-3.031,7.71,0.76,16.418,8.469,19.45c7.71,3.033,16.418-0.76,19.45-8.468c7.51-19.09,11.655-39.216,12.322-59.817
			C436.172,269.613,429.676,262.684,421.397,262.416z"/>
	</g>
</g>
<g>
	<g>
		<path d="M390.431,368.733c-6.255-5.432-15.729-4.763-21.16,1.49c-11.256,12.961-24.505,23.822-39.381,32.28
			c-7.201,4.095-9.72,13.252-5.624,20.454c4.114,7.237,13.286,9.701,20.454,5.625c17.833-10.141,33.715-23.157,47.201-38.688
			C397.354,383.639,396.686,374.165,390.431,368.733z"/>
	</g>
</g>
<g>
	<g>
		<path d="M256,62c-33.084,0-60,26.916-60,60s26.916,60,60,60s60-26.916,60-60S289.084,62,256,62z M256,152
			c-16.542,0-30-13.458-30-30s13.458-30,30-30s30,13.458,30,30S272.542,152,256,152z"/>
	</g>
</g>
<g>
</g>
<g>
</g>
<g>
</g>
<g>
</g>
<g>
</g>
<g>
</g>
<g>
</g>
<g>
</g>
<g>
</g>
<g>
</g>
<g>
</g>
<g>
</g>
<g>
</g>
<g>
</g>
<g>
</g>
</svg>
