<svg height="512pt" viewBox="0 0 512 512" width="512pt" xmlns="http://www.w3.org/2000/svg"><path d="m238.285156 187.980469c5.523438 0 10-4.476563 10-10 0-5.519531-4.476562-10-10-10h-8c-5.523437 0-10 4.480469-10 10 0 5.523437 4.476563 10 10 10zm0 0"/><path d="m245.144531 467.980469c5.519531 0 10-4.476563 10-10 0-5.519531-4.480469-10-10-10h-8c-5.523437 0-10 4.480469-10 10 0 5.523437 4.476563 10 10 10zm0 0"/><path d="m293.144531 467.980469c5.519531 0 10-4.476563 10-10 0-5.519531-4.480469-10-10-10h-8c-5.523437 0-10 4.480469-10 10 0 5.523437 4.476563 10 10 10zm0 0"/><path d="m389.144531 467.980469c5.519531 0 10-4.476563 10-10 0-5.519531-4.480469-10-10-10h-8c-5.523437 0-10 4.480469-10 10 0 5.523437 4.476563 10 10 10zm0 0"/><path d="m93.144531 467.980469h8c5.519531 0 10-4.476563 10-10 0-5.519531-4.480469-10-10-10h-8c-5.523437 0-10 4.480469-10 10 0 5.523437 4.476563 10 10 10zm0 0"/><path d="m94.285156 187.980469c5.523438 0 10-4.476563 10-10 0-5.519531-4.476562-10-10-10h-8c-5.523437 0-10 4.480469-10 10 0 5.523437 4.476563 10 10 10zm0 0"/><path d="m149.144531 447.980469h-8c-5.523437 0-10 4.480469-10 10 0 5.523437 4.476563 10 10 10h8c5.519531 0 10-4.476563 10-10 0-5.519531-4.480469-10-10-10zm0 0"/><path d="m190.285156 167.980469h-8c-5.523437 0-10 4.480469-10 10 0 5.523437 4.476563 10 10 10h8c5.523438 0 10-4.476563 10-10 0-5.519531-4.476562-10-10-10zm0 0"/><path d="m189.144531 447.980469c-5.523437 0-10 4.480469-10 10 0 5.523437 4.476563 10 10 10h8c5.519531 0 10-4.476563 10-10 0-5.519531-4.480469-10-10-10zm0 0"/><path d="m142.285156 187.980469c5.523438 0 10-4.476563 10-10 0-5.519531-4.476562-10-10-10h-8c-5.523437 0-10 4.480469-10 10 0 5.523437 4.476563 10 10 10zm0 0"/><path d="m341.144531 467.980469c5.519531 0 10-4.476563 10-10 0-5.519531-4.480469-10-10-10h-8c-5.523437 0-10 4.480469-10 10 0 5.523437 4.476563 10 10 10zm0 0"/><path d="m58 215.410156c5.523438 0 10-4.476562 10-10v-8c0-5.523437-4.476562-10-10-10s-10 4.476563-10 10v8c0 5.523438 4.476562 10 10 10zm0 0"/><path d="m48 253.410156c0 5.523438 4.476562 10 10 10s10-4.476562 10-10v-8c0-5.523437-4.476562-10-10-10s-10 4.476563-10 10zm0 0"/><path d="m436.496094 447.964844c-.164063.011718-.332032.019531-.496094.019531h-6.855469c-5.523437 0-10 4.476563-10 10 0 5.519531 4.476563 10 10 10h6.855469c.601562 0 1.195312-.019531 1.785156-.058594 5.511719-.355469 9.691406-5.113281 9.335938-10.625-.359375-5.511719-5.109375-9.679687-10.625-9.335937zm0 0"/><path d="m454 219.980469c5.523438 0 10-4.476563 10-10v-8c0-5.519531-4.476562-10-10-10s-10 4.480469-10 10v8c0 5.523437 4.476562 10 10 10zm0 0"/><path d="m48 349.410156c0 5.523438 4.476562 10 10 10s10-4.476562 10-10v-8c0-5.523437-4.476562-10-10-10s-10 4.476563-10 10zm0 0"/><path d="m48 439.980469c0 2.828125.421875 5.625 1.257812 8.3125 1.332032 4.285156 5.28125 7.035156 9.546876 7.035156.980468 0 1.980468-.144531 2.96875-.453125 5.273437-1.636719 8.222656-7.238281 6.582031-12.515625-.234375-.761719-.355469-1.5625-.355469-2.378906v-2.570313c0-5.523437-4.476562-10-10-10s-10 4.476563-10 10zm0 0"/><path d="m48 397.410156c0 5.523438 4.476562 10 10 10s10-4.476562 10-10v-8c0-5.523437-4.476562-10-10-10s-10 4.476563-10 10zm0 0"/><path d="m48 301.410156c0 5.523438 4.476562 10 10 10s10-4.476562 10-10v-8c0-5.523437-4.476562-10-10-10s-10 4.476563-10 10zm0 0"/><path d="m454 437.125c5.523438 0 10-4.476562 10-10v-8c0-5.523438-4.476562-10-10-10s-10 4.476562-10 10v8c0 5.523438 4.476562 10 10 10zm0 0"/><path d="m286.285156 187.980469c5.523438 0 10-4.476563 10-10 0-5.519531-4.476562-10-10-10h-8c-5.523437 0-10 4.480469-10 10 0 5.523437 4.476563 10 10 10zm0 0"/><path d="m430.285156 187.980469c5.523438 0 10-4.476563 10-10 0-5.519531-4.476562-10-10-10h-8c-5.523437 0-10 4.480469-10 10 0 5.523437 4.476563 10 10 10zm0 0"/><path d="m334.285156 187.980469c5.523438 0 10-4.476563 10-10 0-5.519531-4.476562-10-10-10h-8c-5.523437 0-10 4.480469-10 10 0 5.523437 4.476563 10 10 10zm0 0"/><path d="m382.285156 187.980469c5.523438 0 10-4.476563 10-10 0-5.519531-4.476562-10-10-10h-8c-5.523437 0-10 4.480469-10 10 0 5.523437 4.476563 10 10 10zm0 0"/><path d="m290.410156 286.210938c-17.515625 0-31.769531 14.253906-31.769531 31.773437 0 17.515625 14.253906 31.769531 31.769531 31.769531 17.519532 0 31.773438-14.253906 31.773438-31.769531 0-17.519531-14.253906-31.773437-31.773438-31.773437zm0 43.539062c-6.488281 0-11.769531-5.277344-11.769531-11.769531 0-6.488281 5.28125-11.769531 11.769531-11.769531 6.492188 0 11.773438 5.28125 11.773438 11.769531 0 6.492187-5.28125 11.769531-11.773438 11.769531zm0 0"/><path d="m470 123.980469h-95.855469l-50.894531-50.890625c-1.875-1.875-4.417969-2.929688-7.070312-2.929688-2.652344 0-5.195313 1.054688-7.070313 2.929688-3.96875 3.96875-9.242187 6.152344-14.851563 6.152344-5.609374 0-10.882812-2.1875-14.851562-6.152344-1.875-1.875-4.417969-2.929688-7.070312-2.929688-2.652344 0-5.195313 1.054688-7.070313 2.929688l-50.890625 50.894531h-29.941406l99.40625-99.40625c6.113281-6.117187 16.066406-6.117187 22.183594 0l56.023437 56.019531c3.90625 3.90625 10.238281 3.90625 14.140625 0 3.90625-3.902344 3.90625-10.234375 0-14.140625l-56.019531-56.023437c-13.914063-13.910156-36.558594-13.910156-50.472657 0l-113.546874 113.546875h-114.148438c-23.160156 0-42 18.84375-42 42v304c0 23.160156 18.839844 42 42 42h61.046875c5.519531 0 10-4.476563 10-10 0-5.519531-4.480469-10-10-10h-61.046875c-12.132812 0-22-9.867188-22-22v-304c0-12.128907 9.867188-22 22-22h428c12.132812 0 22 9.871093 22 22v53.96875c0 16.15625-12.28125 29.496093-28 31.179687v-1.144531c0-5.523437-4.476562-10-10-10s-10 4.476563-10 10v1.328125h-153.167969c-36.726562 0-66.601562 29.875-66.601562 66.601562 0 36.722657 29.875 66.601563 66.601562 66.601563h154.753907c1.777343 2.769531 4.878906 4.609375 8.414062 4.609375 3.554688 0 6.667969-1.859375 8.441406-4.65625 11.105469-.386719 21.320313-4.308594 29.558594-10.683594v96.199219c0 12.128906-9.871094 22-22 22h-286.953125c-5.523437 0-10 4.476563-10 10 0 5.519531 4.476563 10 10 10h286.953125c23.160156 0 42-18.84375 42-42v-304.003906c0-23.15625-18.839844-42-42-42zm-227.34375 0 30.542969-30.539063c6.296875 3.78125 13.523437 5.800782 21.058593 5.800782 7.535157 0 14.761719-2.019532 21.058594-5.800782l30.542969 30.539063zm217.980469 240.53125h-169.804688c-25.695312 0-46.601562-20.902344-46.601562-46.601563 0-25.695312 20.90625-46.601562 46.601562-46.601562h169.804688c11.804687 0 22.679687-4.011719 31.363281-10.726563v72.570313c0 17.292968-14.070312 31.359375-31.363281 31.359375zm0 0"/><path d="m133.046875 383.417969v4.113281c0 5.523438 4.476563 10 10 10 5.519531 0 10-4.476562 10-10v-4.113281c18.050781-4.171875 31.46875-19.363281 31.46875-37.421875 0-21.261719-18.605469-38.5625-41.46875-38.5625-11.839844 0-21.472656-8.324219-21.472656-18.5625 0-10.234375 9.632812-18.558594 21.472656-18.558594 11.835937 0 21.46875 8.324219 21.46875 18.558594 0 5.523437 4.476563 10 10 10s10-4.476563 10-10c0-18.054688-13.417969-33.246094-31.46875-37.417969v-3.023437c0-5.519532-4.480469-10-10-10-5.523437 0-10 4.480468-10 10v3.023437c-18.054687 4.171875-31.472656 19.363281-31.472656 37.417969 0 21.265625 18.605469 38.5625 41.472656 38.5625 11.835937 0 21.46875 8.328125 21.46875 18.5625s-9.632813 18.5625-21.46875 18.5625c-11.839844 0-21.472656-8.328125-21.472656-18.5625 0-5.523438-4.476563-10-10-10-5.523438 0-10 4.476562-10 10 0 18.058594 13.417969 33.25 31.472656 37.421875zm0 0"/><path d="m143.039062 491.980469c-2.628906 0-5.199218 1.070312-7.070312 2.929687-1.859375 1.863282-2.929688 4.441406-2.929688 7.070313 0 2.632812 1.070313 5.210937 2.929688 7.070312s4.441406 2.929688 7.070312 2.929688c2.640626 0 5.210938-1.070313 7.082032-2.929688 1.859375-1.859375 2.917968-4.4375 2.917968-7.070312 0-2.628907-1.058593-5.207031-2.917968-7.070313-1.871094-1.859375-4.441406-2.929687-7.082032-2.929687zm0 0"/><path d="m397.03125 112.179688c2.558594 0 5.121094-.976563 7.070312-2.929688l.371094-.367188c3.90625-3.90625 3.90625-10.238281 0-14.144531-3.90625-3.902343-10.238281-3.902343-14.144531 0l-.367187.371094c-3.90625 3.902344-3.90625 10.234375 0 14.140625 1.953124 1.953125 4.511718 2.929688 7.070312 2.929688zm0 0"/></svg>